<?xml version="1.0" encoding="UTF-8" standalone="no"?>
<svg
   xmlns:dc="http://purl.org/dc/elements/1.1/"
   xmlns:cc="http://creativecommons.org/ns#"
   xmlns:rdf="http://www.w3.org/1999/02/22-rdf-syntax-ns#"
   xmlns:svg="http://www.w3.org/2000/svg"
   xmlns="http://www.w3.org/2000/svg"
   xmlns:sodipodi="http://sodipodi.sourceforge.net/DTD/sodipodi-0.dtd"
   xmlns:inkscape="http://www.inkscape.org/namespaces/inkscape"
   width="40.547905mm"
   height="51.110752mm"
   viewBox="0 0 40.547905 51.110752"
   version="1.1"
   id="svg1829"
   inkscape:version="1.0.2-2 (e86c870879, 2021-01-15)"
   sodipodi:docname="lion biale.svg">
  <defs
     id="defs1823">
    <clipPath
       clipPathUnits="userSpaceOnUse"
       id="clipPath1099">
      <g
         id="g1109"
         transform="matrix(-0.57856279,0,0,0.57856279,160.35367,-38.937084)"
         style="fill:#00e900;fill-opacity:1"
         clip-path="none">
        <path
           style="fill:#00e900;fill-opacity:1;fill-rule:evenodd;stroke:none;stroke-width:0.352778"
           d="m 91.128729,19.936857 c -0.514008,-0.05099 -0.888834,0.09233 -1.241612,0.263208 -1.214053,0.588423 -2.421213,1.19338 -3.625617,1.803851 -0.777216,0.395496 -1.270554,1.099676 -1.82039,1.736327 -0.205327,0.238403 -0.125402,0.559484 0.132292,0.735873 0.09233,0.06339 0.192923,0.119892 0.297656,0.157096 0.635275,0.227379 1.266416,0.475424 1.914094,0.664217 0.859896,0.252179 1.161687,0.0937 1.470368,-0.773081 0.250803,-0.701421 0.621495,-1.327051 1.092785,-1.890667 0.486445,-0.582912 1.012857,-1.131372 1.519975,-1.696367 0.150206,-0.16674 0.31695,-0.326595 0.429948,-0.515387 0.06063,-0.100595 0.06201,-0.272849 0.02067,-0.385851 -0.02755,-0.07304 -0.183279,-0.09646 -0.190169,-0.09922 m -0.789615,4.125849 c -0.332109,0.03447 -0.559485,0.03858 -0.777216,0.0882 -0.09095,0.02205 -0.224617,0.136426 -0.224617,0.210837 -0.0014,0.119892 0.0565,0.294901 0.148827,0.351402 0.213596,0.129533 0.465776,0.194303 0.694531,0.301791 0.150206,0.07028 0.292146,0.162606 0.428568,0.25769 0.08406,0.05926 0.0565,0.254939 -0.0372,0.293525 -0.101978,0.04134 -0.208086,0.08406 -0.31695,0.09509 -0.756543,0.07304 -1.51722,0.126777 -2.272386,0.213596 -0.362423,0.04134 -0.724849,0.119888 -1.073493,0.224617 -0.418923,0.126781 -0.544325,0.297656 -0.526407,0.751032 0.01379,0.362423 0.08682,0.724849 0.162605,1.080382 0.07717,0.358292 0.209462,0.704176 0.282498,1.062468 0.139185,0.676617 0.0096,0.975649 -0.580154,1.350476 -0.643544,0.406523 -1.296733,0.799264 -1.949923,1.190625 -0.412033,0.243914 -0.839226,0.46302 -1.242991,0.717959 -0.100594,0.06339 -0.201193,0.23151 -0.188789,0.336239 0.01242,0.100598 0.166741,0.248049 0.271473,0.260453 0.332105,0.03858 0.679373,0.07028 1.005967,0.01792 0.442352,-0.07166 0.879189,-0.201196 1.305003,-0.345888 0.826823,-0.282498 1.638487,-0.613227 2.469444,-0.883324 3.045464,-0.992187 5.909028,-2.37436 8.656835,-4.007333 0.166744,-0.09922 0.32935,-0.221866 0.458886,-0.365182 0.361047,-0.396875 0.270098,-0.87643 -0.202572,-1.117589 -0.225996,-0.115754 -0.463021,-0.213596 -0.704176,-0.293522 -1.685339,-0.556725 -3.373437,-1.110699 -5.064291,-1.652266 -0.264583,-0.08544 -0.54846,-0.106109 -0.723469,-0.139182 M 122.2655,12.126146 c -0.31005,-0.02067 -0.50298,0.06477 -0.56912,0.223242 -0.0868,0.209461 -0.0234,0.406521 0.12677,0.540191 0.33487,0.300412 0.66698,0.611849 1.04318,0.850249 1.38355,0.879189 2.51354,1.999533 3.3445,3.410645 0.6146,1.044553 1.20027,2.10702 1.80523,3.158463 0.79926,1.386307 1.81487,2.575553 3.15984,3.47128 0.73449,0.4892 1.52687,0.841978 2.36471,1.10932 1.07487,0.34313 1.96509,0.931552 2.64032,1.868618 1.08865,1.508954 2.22278,2.984832 3.35002,4.464844 0.27147,0.358292 0.58291,0.689021 0.89297,1.015615 0.0634,0.06752 0.2067,0.09922 0.30178,0.08268 0.16537,-0.02893 0.21222,-0.186034 0.19293,-0.32935 -0.0276,-0.192927 -0.0758,-0.38723 -0.13918,-0.571888 -0.48921,-1.45245 -1.17823,-2.811194 -2.08084,-4.044541 -0.96463,-1.320161 -1.98162,-2.601736 -2.99861,-3.881931 -0.95636,-1.204408 -2.10978,-2.188326 -3.45061,-2.951759 -1.18924,-0.676617 -2.23518,-1.526867 -3.02479,-2.658236 -0.3707,-0.531923 -0.71796,-1.079004 -1.06247,-1.627463 -0.49885,-0.79375 -1.08176,-1.504818 -1.81901,-2.097374 -1.11759,-0.899859 -2.41846,-1.43316 -3.73035,-1.951302 -0.12953,-0.05099 -0.27285,-0.06477 -0.34727,-0.0813 m -16.64532,2.363335 c 0.0124,0.106109 0.0179,0.190169 0.0303,0.274229 0.051,0.350022 0.23427,0.48507 0.59531,0.39412 0.24391,-0.06063 0.48783,-0.146073 0.71107,-0.26045 0.3514,-0.179145 0.69729,-0.37207 1.0225,-0.593934 1.22094,-0.828201 2.56867,-1.405599 3.89847,-2.02296 1.39044,-0.643544 2.67478,-1.448318 3.79788,-2.4983832 0.61598,-0.5773981 1.34634,-0.9205295 2.1897,-0.9976997 1.01286,-0.092329 2.02571,-0.1309137 3.04271,-0.0565 2.19246,0.1626087 4.18648,0.8612741 5.94072,2.2007279 0.53743,0.410655 1.04731,0.855761 1.57096,1.282953 0.87368,0.712446 1.74598,1.426269 2.62654,2.130447 0.15021,0.119889 0.33211,0.214974 0.51401,0.27423 0.0786,0.0248 0.2136,-0.04823 0.28939,-0.115756 0.0482,-0.04134 0.0661,-0.166742 0.04,-0.232888 -0.15985,-0.42857 -0.42306,-0.79375 -0.74827,-1.114833 -1.32568,-1.307758 -2.62379,-2.643077 -3.98115,-3.9136286 -1.03629,-0.9701389 -2.24896,-1.6839625 -3.58428,-2.197971 -1.46899,-0.5649955 -2.99585,-0.8075302 -4.55028,-0.875054 -3.00551,-0.1295357 -5.75469,0.6146049 -8.13043,2.532834 -0.54708,0.4437285 -1.10105,0.8819444 -1.62608,1.3504776 -0.94672,0.846116 -1.87413,1.711524 -2.80707,2.572797 -0.55121,0.507118 -0.75516,1.171333 -0.84198,1.867242 m 9.89845,-1.401465 c -1.1796,-0.03307 -2.40605,0.292144 -3.55947,0.847494 -1.57372,0.760677 -3.12126,1.575097 -4.67431,2.377115 -0.24667,0.128158 -0.48783,0.290766 -0.6904,0.479558 -0.29903,0.278364 -0.29214,0.631141 0.04,0.87092 1.12861,0.813042 2.31234,1.402843 3.77858,0.968761 1.54202,-0.457509 3.09921,-0.859896 4.64812,-1.2926 1.92236,-0.537435 3.59255,-0.144694 4.87688,1.424891 0.83784,1.023883 1.63435,2.090486 2.37022,3.190157 0.6463,0.966008 1.33394,1.883781 2.17868,2.683041 1.47864,1.401466 3.22323,2.346801 5.10977,3.077161 1.05144,0.40652 2.09048,0.854382 3.09921,1.355989 1.7501,0.868165 3.36516,1.951302 4.82451,3.256305 0.16812,0.148826 0.35002,0.286632 0.54156,0.403765 0.14332,0.08819 0.32247,0.135046 0.46992,-0.0014 0.15571,-0.144691 0.0772,-0.30868 -0.001,-0.46302 -0.0248,-0.04823 -0.062,-0.09233 -0.0978,-0.136427 -1.63711,-2.076704 -3.49332,-3.912249 -5.81256,-5.23241 -0.41755,-0.237021 -0.84198,-0.460262 -1.26366,-0.689017 -1.29536,-0.702801 -2.48874,-1.548917 -3.56912,-2.550749 -1.12586,-1.043175 -2.0643,-2.236555 -2.80844,-3.577389 -0.27423,-0.493337 -0.5209,-1.001833 -0.791,-1.496548 -0.98254,-1.792828 -2.27238,-3.290756 -4.10931,-4.259516 -1.39182,-0.734495 -2.85116,-1.216808 -4.55993,-1.236101 m 1.18649,31.49782 h -0.0482 c 0,-0.902618 0.0165,-1.805231 -0.003,-2.706469 -0.0303,-1.420756 -0.31281,-2.798794 -0.76619,-4.142384 -0.59393,-1.762509 -1.18787,-3.526398 -1.78594,-5.287532 -0.0716,-0.213596 -0.15158,-0.428568 -0.27009,-0.615981 -0.0634,-0.09922 -0.23013,-0.201193 -0.33349,-0.186034 -0.10335,0.01517 -0.22875,0.16123 -0.26458,0.275607 -0.0675,0.210838 -0.0923,0.440973 -0.10749,0.664214 -0.0234,0.365178 -0.0289,0.733114 -0.0345,1.099675 -0.0179,1.296734 -0.0441,2.596222 0.23427,3.875042 0.24804,1.136883 0.29627,2.291676 0.31694,3.447852 0.0303,1.787313 -0.19844,3.548447 -0.54156,5.293042 -0.30455,1.544783 -0.95912,2.951759 -1.88792,4.21542 -0.95911,1.302247 -2.11391,2.421212 -3.46301,3.321074 -1.71152,1.141014 -3.44096,2.254469 -5.15524,3.391352 -0.75103,0.497469 -1.49379,1.010101 -2.22277,1.540644 -0.959118,0.698666 -1.579237,1.675694 -2.120804,2.705089 -0.945335,1.795586 -1.867242,3.604948 -2.830491,5.390885 -0.671104,1.241612 -1.299489,2.494252 -1.739086,3.843348 -0.868164,2.659617 -1.03766,5.356437 -0.537435,8.10011 0.0441,0.24529 0.144695,0.485069 0.253559,0.70969 0.03721,0.07579 0.187413,0.143316 0.276987,0.132291 0.08957,-0.01101 0.183278,-0.111622 0.243914,-0.194303 0.04547,-0.06201 0.04961,-0.159854 0.05926,-0.242534 0.136423,-1.147907 0.270094,-2.295811 0.40514,-3.443718 0.115757,-0.982543 0.276987,-1.959571 0.713825,-2.85805 0.578778,-1.192005 1.145149,-2.392275 1.788693,-3.549827 1.10381,-1.985754 2.461179,-3.781336 4.229198,-5.233789 1.17684,-0.964625 2.36333,-1.919609 3.56085,-2.858051 1.75838,-1.376662 3.6642,-2.52319 5.62102,-3.593923 0.66697,-0.363802 1.30913,-0.777216 1.93476,-1.207163 0.63252,-0.435459 1.16307,-0.983919 1.58475,-1.628839 0.31006,-0.47129 0.62838,-0.937066 0.92053,-1.41938 1.35874,-2.247583 2.14147,-4.650881 1.97197,-7.314628 -0.0317,-0.50436 -0.004,-1.014237 -0.004,-1.52273 M 96.796485,89.192898 c -0.01792,0.591178 0.09508,1.278819 0.253559,1.572341 0.16123,0.297656 0.486445,0.355533 0.689017,0.08957 0.201193,-0.267342 0.391364,-0.55535 0.518142,-0.862655 0.505742,-1.225073 0.972894,-2.465309 1.475881,-3.690383 0.559486,-1.361504 1.438666,-2.476334 2.630676,-3.348634 1.56958,-1.150662 3.11023,-2.338532 4.69497,-3.467146 1.40009,-0.997697 2.81809,-1.974726 4.27054,-2.892499 1.72118,-1.087275 3.56912,-1.927877 5.47908,-2.636188 1.63711,-0.607716 2.93109,-1.649511 3.86816,-3.139172 0.37345,-0.595312 0.80339,-1.158928 1.24712,-1.704632 1.01699,-1.251257 1.94579,-2.54937 2.62103,-4.028006 1.21956,-2.672017 2.23656,-5.421203 3.20532,-8.188304 0.34588,-0.989429 0.43546,-2.011934 0.29352,-3.079912 -0.18466,-1.395956 -0.33349,-2.798798 -0.53606,-4.19475 -0.31281,-2.14974 -0.93155,-4.175457 -2.16903,-5.988953 -0.58705,-0.862651 -1.11345,-1.763889 -1.67569,-2.643078 -0.82821,-1.289844 -1.43316,-2.683041 -1.9017,-4.135494 -0.26734,-0.830954 -0.50712,-1.672936 -0.7469,-2.512162 -0.12539,-0.440973 -0.29489,-0.853006 -0.61873,-1.186491 -0.15572,-0.16123 -0.44373,-0.09922 -0.46165,0.114378 -0.0331,0.361047 -0.073,0.734494 -0.0179,1.088651 0.23565,1.504816 0.47129,3.011011 0.76757,4.503427 0.51263,2.572797 1.1672,5.111143 1.90445,7.628819 0.43684,1.492416 0.72209,3.01928 0.7717,4.579221 0.0386,1.244367 -0.0951,2.47909 -0.27285,3.708301 -0.2384,1.646756 -0.48783,3.292133 -0.76757,4.931999 -0.0593,0.348644 -0.24942,0.682128 -0.41754,1.003212 -0.12954,0.248045 -0.31971,0.463021 -0.47956,0.695907 -1.42076,2.068435 -2.86219,4.123091 -4.41524,6.096441 -0.52503,0.665593 -1.11621,1.260906 -1.79971,1.779048 -1.26642,0.96187 -2.66926,1.678449 -4.09829,2.352311 -0.68764,0.325219 -1.38631,0.63252 -2.06292,0.979784 -1.55305,0.797885 -2.88837,1.849328 -3.88331,3.314185 -0.33073,0.486445 -0.74552,0.919149 -1.1548,1.346341 -0.87643,0.917773 -1.77216,1.816255 -2.66512,2.718869 -0.41755,0.423058 -0.80065,0.87092 -1.09279,1.393197 -0.851626,1.525489 -1.703257,3.052357 -2.568663,4.572332 -0.571884,1.003211 -0.857141,2.079459 -0.8847,3.230121 m 44.331483,-34.0403 c 0,-1.067978 -0.0179,-1.857593 0.007,-2.647209 0.0124,-0.413413 0.1888,-0.502987 0.54708,-0.344512 0.12816,0.05788 0.24667,0.139182 0.37759,0.188793 0.24253,0.09095 0.48231,-0.01655 0.52641,-0.261828 0.062,-0.33073 0.13091,-0.672483 0.10749,-1.003212 -0.12541,-1.744596 -0.26597,-3.487815 -0.42857,-5.228276 -0.0868,-0.931556 -0.28526,-1.847949 -0.74828,-2.670637 -0.33073,-0.589802 -0.70004,-1.158932 -1.09141,-1.708768 -0.72071,-1.010101 -1.49517,-1.982999 -2.2021,-3.001369 -0.58153,-0.839223 -1.2361,-1.61368 -1.93477,-2.349553 -0.75654,-0.796505 -1.56407,-1.542027 -2.46117,-2.188327 -1.77767,-1.280195 -3.7083,-2.251713 -5.78225,-2.950379 -0.88195,-0.296277 -1.76114,-0.603581 -2.63068,-0.934311 -1.51446,-0.576019 -2.92282,-1.331182 -4.10793,-2.46393 -0.34589,-0.32935 -0.73587,-0.617361 -1.13412,-0.880565 -0.22738,-0.150206 -0.50712,-0.23978 -0.77584,-0.301791 -0.32659,-0.07579 -0.53743,0.173634 -0.46302,0.507118 0.0689,0.311436 0.24254,0.564995 0.45475,0.799261 0.39826,0.436837 0.77859,0.892968 1.18374,1.324296 0.83096,0.88332 1.63711,1.794206 2.52181,2.61965 1.4056,1.310513 2.97932,2.410188 4.56682,3.489191 1.0666,0.726228 1.92787,1.621952 2.49287,2.811197 0.47129,0.992188 1.04317,1.934768 1.56132,2.903527 0.47955,0.895728 0.97151,1.785938 1.41248,2.699579 0.99219,2.054656 1.43316,4.20715 1.07212,6.490557 -0.0648,0.417548 -0.0868,0.843361 -0.11714,1.26504 -0.13091,1.828659 -0.26596,3.657314 -0.38447,5.487349 -0.0372,0.571885 -0.15434,1.114834 -0.38723,1.637108 -1.31051,2.925575 -2.90215,5.666493 -5.1139,8.022939 -1.0101,1.073492 -1.76664,2.326128 -2.41156,3.657314 -1.01148,2.089104 -1.63711,4.321528 -2.48047,6.472646 -0.0854,0.220487 -0.0593,0.500225 -0.0317,0.745519 0.0331,0.290766 0.3073,0.421678 0.56913,0.299032 0.34451,-0.159851 0.58566,-0.432703 0.77583,-0.755163 0.22876,-0.388606 0.45751,-0.777216 0.68627,-1.167201 0.7717,-1.311892 1.55718,-2.61276 2.49976,-3.817165 0.9095,-1.157552 1.96232,-2.177298 2.95589,-3.256304 0.0923,-0.100595 0.21773,-0.177765 0.34037,-0.241156 0.27286,-0.140561 0.50988,-0.04272 0.59807,0.242535 0.073,0.242535 0.113,0.496094 0.19431,0.735873 0.13918,0.409275 0.42167,0.516763 0.78961,0.275608 0.23151,-0.152965 0.44511,-0.348643 0.62425,-0.560864 0.63666,-0.755163 1.26229,-1.518595 1.87689,-2.291676 1.47175,-1.856218 2.9366,-3.719325 4.40146,-5.581054 0.84198,-1.069357 1.36425,-2.262741 1.41938,-3.642155 0.0344,-0.901238 0.0909,-1.801096 0.12402,-2.426727 M 82.278967,107.12947 c -0.56224,-0.41204 -0.752408,-0.90813 -0.892969,-1.42903 -0.361043,-1.33256 -0.72209,-2.6665 -1.073492,-4.0032 -0.321081,-1.22783 -0.617361,-2.462554 -0.94809,-3.689008 -0.348644,-1.295354 -0.498849,-2.593466 -0.285253,-3.934297 0.253559,-1.586124 0.45751,-3.18189 0.679372,-4.773524 0.06201,-0.446486 0.133671,-0.894348 0.16812,-1.34359 0.115757,-1.540644 0.529167,-2.999987 1.240236,-4.365625 0.978408,-1.875507 1.970596,-3.744129 2.991722,-5.596212 1.471743,-2.666503 2.972427,-5.316471 4.462088,-7.971949 0.598068,-1.067982 1.004588,-2.195216 1.237477,-3.402379 0.661459,-3.405131 1.3615,-6.803372 2.327505,-10.140982 0.377585,-1.310513 0.905372,-2.547994 1.597148,-3.719325 0.602202,-1.019747 1.190625,-2.047766 1.773534,-3.079916 0.235645,-0.416165 0.440972,-0.851627 0.651813,-1.281574 1.018371,-2.076704 2.552125,-3.711057 4.406972,-5.049132 0.95911,-0.693152 1.97197,-1.310513 2.9614,-1.960947 3.14055,-2.068435 5.5025,-4.809356 7.10241,-8.213108 0.46026,-0.979787 0.627,-2.046386 0.9412,-3.067515 0.22186,-0.717956 0.14331,-1.380794 -0.11025,-2.062921 -0.31419,-0.844737 -0.58704,-1.704633 -0.8971,-2.552129 -0.0854,-0.232886 -0.2136,-0.463021 -0.36794,-0.657323 -0.3445,-0.438214 -0.73173,-0.366558 -0.95498,0.159854 -0.0661,0.15434 -0.11162,0.32108 -0.14883,0.485069 -0.0372,0.163985 -0.0606,0.333485 -0.0758,0.501604 -0.16123,1.712902 -0.35277,3.424425 -0.46715,5.141461 -0.10749,1.616438 -0.70004,3.005501 -1.75011,4.21404 -0.2949,0.338998 -0.61874,0.660082 -0.96463,0.94809 -2.71335,2.251717 -5.36056,4.580601 -7.974704,6.945313 -0.377581,0.341753 -0.760677,0.680751 -1.17271,0.974273 -0.786861,0.559484 -1.321538,1.313272 -1.664671,2.191082 -0.319704,0.821309 -0.764811,1.569585 -1.182355,2.337152 -1.037664,1.907205 -2.078084,3.813031 -3.078537,5.739529 -0.894348,1.722547 -2.181436,3.068891 -3.764802,4.157542 -0.325215,0.223242 -0.668348,0.429948 -0.950845,0.700042 -0.792371,0.755167 -1.730816,1.045933 -2.794663,0.921907 -0.756543,-0.08544 -1.511706,-0.201193 -2.258604,-0.348643 -1.222318,-0.241156 -2.45842,-0.341754 -3.697277,-0.417544 -0.336239,-0.0193 -0.676617,0.01379 -1.014236,0.0096 -0.675237,-0.01242 -1.351855,-0.0083 -2.025713,-0.05512 -1.398711,-0.09508 -2.707848,-0.523653 -3.95635,-1.146528 -0.530542,-0.263204 -1.056954,-0.534677 -1.570963,-0.825443 -0.631141,-0.354158 -1.101052,-0.851627 -1.395953,-1.532379 -0.450618,-1.037664 -0.853005,-2.089108 -1.146527,-3.18189 -0.06339,-0.237024 -0.09784,-0.508497 -0.05099,-0.745518 0.163987,-0.835092 1.077626,-1.227832 1.857596,-0.822692 0.09922,0.05099 0.188791,0.124026 0.279742,0.191548 1.172711,0.875055 2.523187,1.236102 3.956347,1.310517 0.617361,0.03168 1.247125,0.02755 1.858973,-0.05099 1.178224,-0.14883 2.316483,0.0193 3.418914,0.39274 1.682584,0.570505 3.344499,1.198891 5.017434,1.798338 0.290767,0.104732 0.587047,0.206706 0.888838,0.270097 0.186034,0.03858 0.392741,0.02618 0.58153,-0.01101 0.08406,-0.01655 0.188792,-0.139181 0.208086,-0.228755 0.0193,-0.0937 -0.04548,-0.209462 -0.09233,-0.305925 -0.02205,-0.0441 -0.08682,-0.0689 -0.137806,-0.09508 -0.983918,-0.489204 -1.965082,-0.982539 -2.951755,-1.466232 -1.630222,-0.80064 -3.363793,-1.300868 -5.113902,-1.74873 -0.792371,-0.202572 -1.590255,-0.384471 -2.382626,-0.591178 -1.595769,-0.417544 -3.074405,-1.107945 -4.478626,-1.962326 -0.97565,-0.595313 -1.532377,-1.495171 -1.754242,-2.587957 -0.275607,-1.364259 -0.303168,-2.745052 -0.128157,-4.127225 0.139182,-1.105185 0.690397,-1.988509 1.619195,-2.559014 0.85714,-0.527791 1.440049,-1.242992 1.882401,-2.115291 0.203947,-0.402386 0.425813,-0.795126 0.636654,-1.19338 0.06477,-0.125402 0.125399,-0.253559 0.17501,-0.384472 0.08544,-0.22462 0.08819,-0.447862 -0.08957,-0.63252 -0.177765,-0.184658 -0.537432,-0.208086 -0.784102,-0.04685 -0.117132,0.07579 -0.217731,0.179144 -0.322463,0.272849 -0.439593,0.383095 -0.949466,0.600826 -1.526865,0.657324 -0.252181,0.0248 -0.507118,0.05237 -0.759299,0.05099 -0.514008,-0.0055 -1.008724,0.05788 -1.491037,0.2508 -0.40101,0.159855 -0.826823,0.173634 -1.252637,0.117133 -0.216352,-0.02755 -0.3514,-0.203948 -0.327973,-0.414789 0.04134,-0.378961 0.219108,-0.686262 0.458886,-0.978404 1.058334,-1.287089 2.35369,-2.279276 3.840591,-2.997235 1.547538,-0.745519 3.129527,-1.423512 4.707379,-2.105643 1.733574,-0.751028 3.48506,-1.459343 5.217255,-2.215885 0.512628,-0.224621 0.997698,-0.522277 1.470364,-0.826823 0.576022,-0.370692 1.030774,-0.866786 1.376662,-1.466233 1.34772,-2.334394 3.359658,-3.910869 5.767087,-5.038107 1.616442,-0.75792 3.304537,-1.300867 5.014684,-1.792827 0.811664,-0.234266 1.634352,-0.443728 2.428102,-0.728982 1.553048,-0.558106 2.949003,-1.395953 4.233333,-2.433615 0.606337,-0.490582 0.956357,-1.096919 1.073487,-1.852084 0.04,-0.252181 0.0648,-0.504362 0.10749,-0.755165 0.17088,-0.983919 0.64079,-1.795583 1.40284,-2.441883 0.22187,-0.19017 0.45889,-0.325217 0.75655,-0.332108 0.24115,-0.0055 0.45888,0.19706 0.40376,0.431327 -0.0661,0.268717 -0.15985,0.542946 -0.30041,0.779969 -0.48782,0.825445 -1.00459,1.632975 -1.50344,2.45153 -0.26458,0.434082 -0.51952,0.873676 -0.76757,1.316026 -0.10886,0.19706 -0.19981,0.405144 -0.28249,0.614605 -0.0992,0.252181 0.073,0.451997 0.35002,0.399632 0.39136,-0.07442 0.76343,-0.202572 1.04179,-0.515387 0.22462,-0.252181 0.45476,-0.500228 0.67249,-0.759299 0.79788,-0.949468 1.61919,-1.883778 2.37987,-2.862185 0.7276,-0.932932 1.43729,-1.8865343 2.07395,-2.882856 1.12999,-1.7625109 2.64032,-3.0661348 4.50894,-3.977018 1.36977,-0.6683487 2.74918,-1.3091364 4.21817,-1.7404623 1.75287,-0.5140081 3.49608,-0.5953124 5.2393,0.028938 1.14102,0.4065214 2.30133,0.7703234 3.42443,1.2236979 1.71703,0.6945312 3.27559,1.6508899 4.51032,3.0592447 0.74551,0.8488715 1.40697,1.7638889 2.00504,2.7230037 1.58474,2.53559 3.03858,5.145595 4.47174,7.768001 0.17639,0.321083 0.36517,0.636654 0.53881,0.959115 0.32797,0.613227 0.80064,1.076247 1.3932,1.440049 1.67018,1.023885 2.96553,2.415702 3.9591,4.095531 0.69453,1.168577 1.23196,2.408809 1.63573,3.706922 0.26321,0.844737 0.33211,1.712902 0.31419,2.592091 -0.0331,1.637108 -0.0441,3.275595 -0.2508,4.901682 -0.18052,1.409731 0.0482,2.754697 0.58842,4.054185 0.41066,0.990812 0.83096,1.977485 1.24713,2.965538 0.44924,1.067982 0.80753,2.162144 1.05144,3.299026 0.25907,1.20027 0.31695,2.406054 0.16812,3.618728 -0.13229,1.066602 -0.17914,2.13596 -0.1695,3.208073 0.004,0.508497 -0.004,1.015615 0,1.524109 0.0221,2.859429 -0.77859,5.513532 -2.02709,8.049122 -1.0542,2.141471 -2.44464,4.051431 -4.02663,5.829102 -2.24345,2.517673 -4.71013,4.784549 -7.49653,6.688995 -1.91134,1.306382 -3.91776,2.455665 -5.96966,3.526402 -0.5333,0.278363 -0.99357,0.633896 -1.41386,1.056954 -1.21406,1.223698 -2.27928,2.576932 -3.35139,3.921897 -0.29904,0.374827 -0.59807,0.749653 -0.88746,1.131369 -0.13505,0.179144 -0.26321,0.367937 -0.35829,0.570509 -0.0358,0.07717 -0.003,0.237021 0.0593,0.297656 0.0634,0.06063 0.21222,0.08406 0.30317,0.05788 0.12816,-0.03996 0.24254,-0.135047 0.35692,-0.214976 1.13412,-0.789615 2.25998,-1.590255 3.40099,-2.370226 2.65272,-1.814875 5.25722,-3.702787 8.10976,-5.208982 1.64813,-0.87092 3.21496,-1.874132 4.6495,-3.070271 0.86678,-0.723469 1.7253,-1.455208 2.58933,-2.180054 0.17226,-0.146074 0.34038,-0.30179 0.53193,-0.417547 0.10748,-0.06615 0.28525,-0.118509 0.37896,-0.07166 0.0923,0.04547 0.13091,0.220487 0.16674,0.347264 0.0207,0.07579 -10e-4,0.168124 -0.0165,0.250804 -0.21635,1.105186 -0.41755,2.214506 -0.6587,3.315561 -0.20119,0.915017 -0.57465,1.766644 -1.05558,2.572798 -0.55122,0.919151 -1.06936,1.857593 -1.64538,2.76021 -0.76618,1.203026 -1.77629,2.188323 -2.90766,3.045464 -1.31603,0.996322 -2.80155,1.659156 -4.33531,2.254469 -1.418,0.54846 -2.79052,1.215432 -4.1851,1.8259 -0.6463,0.282501 -1.28984,0.571888 -1.94441,0.830957 -0.90124,0.355537 -1.85484,0.480935 -2.81258,0.56224 -1.32291,0.113002 -2.64996,0.126781 -3.97426,0.03583 -1.1479,-0.07993 -2.18419,0.206703 -3.09645,0.895724 -1.16995,0.883321 -2.31648,1.796962 -3.47679,2.694065 -0.84749,0.655945 -1.67845,1.342207 -2.7106,1.697743 -0.55948,0.192924 -1.12448,0.376203 -1.69774,0.515384 -3.12539,0.760677 -6.25216,1.507575 -9.380308,2.255852 -0.246669,0.05925 -0.496093,0.103349 -0.746897,0.146071 -1.907205,0.327974 -3.712436,0.902613 -5.352299,1.984375 -1.743219,1.14928 -3.515377,2.25723 -5.028462,3.71106 -0.731739,0.7028 -1.412491,1.45796 -2.100129,2.20486 -0.403768,0.43821 -0.876434,0.78134 -1.358748,1.19062"
           id="path1101" />
        <path
           style="fill:#00e900;fill-opacity:1;fill-rule:evenodd;stroke:none;stroke-width:0.352778"
           d="m 74.585381,78.325713 c 0,-1.132748 0.228755,-2.144226 0.620116,-3.122634 0.460266,-1.150662 0.934311,-2.294435 1.398711,-3.443717 0.381716,-0.943956 0.843358,-1.84657 1.43316,-2.674772 0.210838,-0.294901 0.457507,-0.578778 0.737249,-0.808909 1.395952,-1.141014 2.808443,-2.264117 4.216795,-3.389972 1.011481,-0.810288 2.072569,-1.557186 3.009635,-2.461179 0.300415,-0.288008 0.664217,-0.515384 1.012861,-0.749653 0.151585,-0.101974 0.378961,0.0248 0.373447,0.201197 -0.0096,0.279738 -0.03168,0.562239 -0.08682,0.835088 -0.249425,1.25953 -0.892969,2.29719 -1.809366,3.183269 -1.132748,1.098296 -2.273762,2.189702 -3.380327,3.315561 -0.989432,1.003212 -1.955437,2.029848 -2.898013,3.078536 -1.551672,1.725306 -2.608626,3.731729 -3.283867,5.947615 -0.281118,0.923283 -0.188789,1.841059 -0.02618,2.762966 0.0193,0.107484 0.07855,0.210837 0.136422,0.305922 0.226,0.372071 0.614606,0.383095 0.774461,-0.02205 0.234265,-0.599444 0.416164,-1.223698 0.569129,-1.849325 0.275607,-1.128613 0.604957,-2.226909 1.234722,-3.221855 0.753787,-1.187867 1.774913,-2.105643 2.888368,-2.936597 0.04272,-0.03168 0.101974,-0.04548 0.15434,-0.06477 0.192924,-0.07028 0.439593,0.115757 0.378961,0.31006 -0.08957,0.293522 -0.203951,0.582909 -0.338998,0.858517 -0.432703,0.887458 -0.879189,1.766644 -1.321541,2.648588 -1.034905,2.06568 -2.069811,4.132739 -3.112985,6.19566 -0.09922,0.195682 -0.2384,0.378961 -0.391365,0.540191 -0.148826,0.157099 -0.384471,0.132291 -0.525032,-0.02893 -0.09233,-0.106109 -0.177768,-0.220486 -0.243914,-0.343129 -0.785481,-1.451074 -1.375279,-2.966918 -1.493791,-4.632967 -0.01242,-0.16812 -0.02067,-0.337619 -0.02618,-0.432703"
           id="path1103" />
        <path
           style="fill:#00e900;fill-opacity:1;fill-rule:evenodd;stroke:none;stroke-width:0.352778"
           d="m 63.835305,45.99005 c 0.07717,-0.770326 0.12678,-1.444184 0.216352,-2.112536 0.09095,-0.666969 0.208084,-1.332562 0.340376,-1.99402 0.04134,-0.212217 0.143316,-0.423058 0.261827,-0.606337 0.125401,-0.195682 0.482313,-0.14056 0.549837,0.08681 0.06063,0.209462 0.08819,0.440973 0.07028,0.657328 -0.04961,0.588419 -0.129536,1.174086 -0.202572,1.759754 -0.08819,0.702797 -0.08544,1.398707 0.05237,2.097373 0.09784,0.496094 0.15434,1.000457 0.239779,1.497926 0.07304,0.425814 -0.05099,0.775836 -0.369315,1.061092 -0.133669,0.119888 -0.354155,0.137802 -0.454752,0.0014 -0.161231,-0.221862 -0.354156,-0.456132 -0.413412,-0.713825 -0.14056,-0.599444 -0.208083,-1.215429 -0.290766,-1.734947"
           id="path1105" />
        <path
           style="fill:#00e900;fill-opacity:1;fill-rule:evenodd;stroke:none;stroke-width:0.352778"
           d="m 92.633548,28.162369 c -0.122647,0.141936 -0.205331,0.30179 -0.336243,0.377581 -0.971518,0.56224 -2.010558,0.837847 -3.139172,0.671107 -0.133667,-0.02067 -0.281118,-0.06064 -0.38585,-0.140561 -0.06752,-0.04961 -0.112999,-0.203951 -0.08682,-0.285252 0.04134,-0.125402 0.137803,-0.241159 0.234266,-0.337623 0.825447,-0.821309 2.408813,-1.069357 3.445097,-0.537432 0.09095,0.04823 0.157096,0.146071 0.268718,0.25218"
           id="path1107" />
      </g>
    </clipPath>
    <clipPath
       clipPathUnits="userSpaceOnUse"
       id="clipPath2419">
      <path
         style="opacity:0.997;fill:#000000;fill-opacity:1;stroke-width:0.127763"
         id="path2421"
         width="53.629063"
         height="94.049782"
         x="73.369804"
         y="-52.109993"
         sodipodi:type="rect"
         clip-path="url(#clipPath1099)"
         transform="matrix(0.76632141,0,0,0.76632141,-17.401923,87.099438)"
         d="M 73.369804,-52.109993 H 126.99887 V 41.939789 H 73.369804 Z" />
    </clipPath>
  </defs>
  <sodipodi:namedview
     id="base"
     pagecolor="#ffffff"
     bordercolor="#666666"
     borderopacity="1.0"
     inkscape:pageopacity="0.0"
     inkscape:pageshadow="2"
     inkscape:zoom="1.979899"
     inkscape:cx="-98.945303"
     inkscape:cy="130.58068"
     inkscape:document-units="mm"
     inkscape:current-layer="layer1"
     inkscape:document-rotation="0"
     showgrid="false"
     inkscape:window-width="1431"
     inkscape:window-height="1030"
     inkscape:window-x="32"
     inkscape:window-y="0"
     inkscape:window-maximized="0" />
  <metadata
     id="metadata1826">
    <rdf:RDF>
      <cc:Work
         rdf:about="">
        <dc:format>image/svg+xml</dc:format>
        <dc:type
           rdf:resource="http://purl.org/dc/dcmitype/StillImage" />
        <dc:title />
      </cc:Work>
    </rdf:RDF>
  </metadata>
  <g
     inkscape:label="Layer 1"
     inkscape:groupmode="layer"
     id="layer1"
     transform="translate(-89.33687,-64.21116)">
    <rect
       style="opacity:0.997;fill:#ffffff;fill-opacity:1;stroke-width:0.396528;stroke-opacity:0.177143"
       id="rect2413"
       width="41.426777"
       height="51.110752"
       x="37.944057"
       y="56.593979"
       clip-path="url(#clipPath2419)"
       transform="translate(50.513941,7.6171815)" />
  </g>
</svg>
